<svg width="808" height="733" viewBox="0 0 808 733" fill="none" xmlns="http://www.w3.org/2000/svg">
<g opacity="0.39">
<path opacity="0.39" d="M48.133 351.112C59.393 351.112 68.521 341.984 68.521 330.724C68.521 319.464 59.393 310.336 48.133 310.336C36.873 310.336 27.745 319.464 27.745 330.724C27.745 341.984 36.873 351.112 48.133 351.112Z" fill="white"/>
<path opacity="0.39" d="M48.1329 339.462C52.9588 339.462 56.871 335.55 56.871 330.724C56.871 325.898 52.9588 321.986 48.1329 321.986C43.3071 321.986 39.395 325.898 39.395 330.724C39.395 335.55 43.3071 339.462 48.1329 339.462Z" fill="white"/>
<path opacity="0.39" d="M79.878 301.476L67.266 308.758L67.285 308.79C66.3639 307.986 65.393 307.24 64.378 306.558L64.412 306.568L68.181 292.5C68.4806 291.381 68.3236 290.188 67.7443 289.185C67.1651 288.182 66.211 287.449 65.092 287.149L55.245 284.511C54.1259 284.211 52.9336 284.368 51.9304 284.948C50.9271 285.527 50.195 286.481 49.895 287.6L46.126 301.667H46.147C44.9383 301.75 43.7359 301.908 42.547 302.141L42.563 302.131L35.282 289.52C34.9953 289.023 34.6134 288.587 34.1583 288.238C33.7032 287.888 33.1837 287.632 32.6295 287.484C32.0752 287.335 31.4972 287.297 30.9283 287.372C30.3594 287.447 29.8109 287.633 29.314 287.92L20.486 293.02C19.989 293.307 19.5533 293.688 19.2039 294.143C18.8545 294.598 18.5982 295.118 18.4496 295.672C18.301 296.226 18.2631 296.804 18.338 297.373C18.4128 297.942 18.5991 298.49 18.886 298.987L26.167 311.599L26.183 311.59C25.3863 312.504 24.6475 313.468 23.971 314.474L23.977 314.454L9.90997 310.684C8.79076 310.384 7.59837 310.542 6.59508 311.121C5.59178 311.701 4.85974 312.655 4.55997 313.774L1.92097 323.62C1.62135 324.739 1.77854 325.932 2.358 326.935C2.93746 327.939 3.89173 328.671 5.01097 328.971L19.077 332.74L19.086 332.706C19.1688 333.926 19.3288 335.139 19.565 336.339L19.547 336.307L6.93497 343.588C5.93158 344.167 5.19938 345.122 4.89934 346.241C4.5993 347.36 4.756 348.552 5.33498 349.556L10.435 358.384C10.7217 358.881 11.1035 359.317 11.5586 359.666C12.0138 360.016 12.5333 360.272 13.0875 360.42C13.6417 360.569 14.2198 360.607 14.7887 360.532C15.3575 360.457 15.9061 360.271 16.403 359.984L29.014 352.703L28.986 352.655C29.9183 353.469 30.9016 354.222 31.93 354.91L31.869 354.894L28.1 368.96C27.8 370.079 27.957 371.272 28.5363 372.275C29.1156 373.279 30.0698 374.011 31.189 374.311L41.036 376.949C42.155 377.249 43.3473 377.092 44.3506 376.512C45.3539 375.933 46.086 374.979 46.386 373.86L50.155 359.793L50.081 359.773C51.3256 359.691 52.5636 359.529 53.787 359.286L53.722 359.324L61.004 371.935C61.2907 372.432 61.6725 372.868 62.1276 373.217C62.5828 373.567 63.1023 373.823 63.6565 373.971C64.2107 374.12 64.7888 374.158 65.3577 374.083C65.9265 374.008 66.4751 373.822 66.972 373.535L75.8 368.435C76.8033 367.856 77.5355 366.902 77.8355 365.783C78.1356 364.664 77.9789 363.471 77.4 362.468L70.119 349.856L70.054 349.893C70.8756 348.955 71.6355 347.964 72.329 346.927L72.309 347.001L86.375 350.771C86.9292 350.919 87.5073 350.957 88.0762 350.882C88.645 350.808 89.1936 350.621 89.6905 350.334C90.1874 350.047 90.6229 349.665 90.9721 349.21C91.3214 348.755 91.5775 348.235 91.726 347.681L94.364 337.835C94.5126 337.281 94.5506 336.703 94.4758 336.134C94.401 335.565 94.2149 335.016 93.928 334.52C93.6412 334.023 93.2592 333.587 92.804 333.238C92.3488 332.889 91.8292 332.632 91.275 332.484L77.2 328.72L77.183 328.781C77.1014 327.546 76.9407 326.318 76.702 325.104L76.73 325.153L89.342 317.872C90.3453 317.293 91.0776 316.338 91.3776 315.219C91.6776 314.1 91.5209 312.908 90.942 311.904L85.842 303.076C85.2628 302.073 84.3093 301.342 83.1911 301.042C82.0728 300.742 80.8812 300.898 79.878 301.476Z" fill="white"/>
</g>
<path opacity="0.39" d="M172.744 144.406C201.213 144.406 224.292 121.327 224.292 92.8576C224.292 64.3884 201.213 41.3096 172.744 41.3096C144.275 41.3096 121.196 64.3884 121.196 92.8576C121.196 121.327 144.275 144.406 172.744 144.406Z" fill="white"/>
<path d="M172.036 93.4183L199.883 77.2363L199.797 107.509L171.95 123.692L172.036 93.4183Z" stroke="#1E223B" stroke-width="2" stroke-linecap="round" stroke-linejoin="round"/>
<path d="M145.69 78.2084L173.537 62.0254L199.883 77.2364L172.036 93.4184L145.69 78.2084Z" stroke="#1E223B" stroke-width="2" stroke-linecap="round" stroke-linejoin="round"/>
<path d="M145.69 78.2084L173.537 62.0254L199.883 77.2364L172.036 93.4184L145.69 78.2084Z" fill="#028B9E" stroke="#1E223B" stroke-width="2" stroke-linecap="round" stroke-linejoin="round"/>
<path opacity="0.4" d="M172.036 93.418L171.95 123.692L145.604 108.481L145.69 78.208L172.036 93.418Z" fill="#028B9E" stroke="#1E223B" stroke-width="2" stroke-linecap="round" stroke-linejoin="round"/>
<path d="M172.036 93.418L171.95 123.692L145.604 108.481L145.69 78.208L172.036 93.418Z" stroke="#1E223B" stroke-width="2" stroke-linecap="round" stroke-linejoin="round"/>
<path d="M172.744 144.406C201.213 144.406 224.292 121.327 224.292 92.8576C224.292 64.3884 201.213 41.3096 172.744 41.3096C144.275 41.3096 121.196 64.3884 121.196 92.8576C121.196 121.327 144.275 144.406 172.744 144.406Z" stroke="#1E223B" stroke-width="2" stroke-linecap="round" stroke-linejoin="round"/>
<g style="mix-blend-mode:multiply" opacity="0.11">
<path d="M531.5 493.737H249.5C239.559 493.737 231.5 501.796 231.5 511.737V713.737C231.5 723.678 239.559 731.737 249.5 731.737H531.5C541.441 731.737 549.5 723.678 549.5 713.737V511.737C549.5 501.796 541.441 493.737 531.5 493.737Z" fill="#161616"/>
<path d="M531.5 493.737H249.5C239.559 493.737 231.5 501.796 231.5 511.737V713.737C231.5 723.678 239.559 731.737 249.5 731.737H531.5C541.441 731.737 549.5 723.678 549.5 713.737V511.737C549.5 501.796 541.441 493.737 531.5 493.737Z" stroke="#1E223B" stroke-miterlimit="10"/>
</g>
<g style="mix-blend-mode:multiply" opacity="0.11">
<path d="M542.5 479.737H238.5C234.634 479.737 231.5 482.871 231.5 486.737C231.5 490.603 234.634 493.737 238.5 493.737H542.5C546.366 493.737 549.5 490.603 549.5 486.737C549.5 482.871 546.366 479.737 542.5 479.737Z" fill="#161616"/>
<path d="M542.5 479.737H238.5C234.634 479.737 231.5 482.871 231.5 486.737C231.5 490.603 234.634 493.737 238.5 493.737H542.5C546.366 493.737 549.5 490.603 549.5 486.737C549.5 482.871 546.366 479.737 542.5 479.737Z" stroke="#1E223B" stroke-miterlimit="10"/>
</g>
<path d="M521.5 485.737H239.5C229.559 485.737 221.5 493.796 221.5 503.737V705.737C221.5 715.678 229.559 723.737 239.5 723.737H521.5C531.441 723.737 539.5 715.678 539.5 705.737V503.737C539.5 493.796 531.441 485.737 521.5 485.737Z" fill="#2F4584"/>
<path d="M521.5 485.737H239.5C229.559 485.737 221.5 493.796 221.5 503.737V699.737C221.5 709.678 229.559 717.737 239.5 717.737H521.5C531.441 717.737 539.5 709.678 539.5 699.737V503.737C539.5 493.796 531.441 485.737 521.5 485.737Z" fill="white"/>
<path opacity="0.15" d="M521 503.237H240C237.791 503.237 236 505.028 236 507.237V620.237C236 622.446 237.791 624.237 240 624.237H521C523.209 624.237 525 622.446 525 620.237V507.237C525 505.028 523.209 503.237 521 503.237Z" fill="#1E223B" stroke="#1E223B" stroke-width="2" stroke-miterlimit="11"/>
<path d="M521.5 485.737H239.5C229.559 485.737 221.5 493.796 221.5 503.737V699.737C221.5 709.678 229.559 717.737 239.5 717.737H521.5C531.441 717.737 539.5 709.678 539.5 699.737V503.737C539.5 493.796 531.441 485.737 521.5 485.737Z" stroke="#1E223B" stroke-width="2" stroke-linecap="round" stroke-linejoin="round"/>
<path d="M521.5 485.737H239.5C229.559 485.737 221.5 493.796 221.5 503.737V705.737C221.5 715.678 229.559 723.737 239.5 723.737H521.5C531.441 723.737 539.5 715.678 539.5 705.737V503.737C539.5 493.796 531.441 485.737 521.5 485.737Z" stroke="#1E223B" stroke-width="2" stroke-linecap="round" stroke-linejoin="round"/>
<path d="M521.5 253.737H239.5C229.559 253.737 221.5 261.796 221.5 271.737V467.737C221.5 477.678 229.559 485.737 239.5 485.737H521.5C531.441 485.737 539.5 477.678 539.5 467.737V271.737C539.5 261.796 531.441 253.737 521.5 253.737Z" fill="#2F4584"/>
<path d="M521.5 253.737H239.5C229.559 253.737 221.5 261.796 221.5 271.737V467.737C221.5 477.678 229.559 485.737 239.5 485.737H521.5C531.441 485.737 539.5 477.678 539.5 467.737V271.737C539.5 261.796 531.441 253.737 521.5 253.737Z" stroke="#1E223B" stroke-width="2" stroke-linecap="round" stroke-linejoin="round"/>
<path d="M533.501 467.737V271.737C533.501 265.11 528.128 259.737 521.501 259.737H239.501C232.874 259.737 227.501 265.11 227.501 271.737V467.737C227.501 474.365 232.874 479.737 239.501 479.737H521.501C528.128 479.737 533.501 474.365 533.501 467.737Z" fill="white"/>
<path d="M509.501 455.737V283.737H251.501V455.737H509.501Z" fill="#FF5855" stroke="#1E223B" stroke-miterlimit="10"/>
<path d="M533.501 467.737V271.737C533.501 265.11 528.128 259.737 521.501 259.737H239.501C232.874 259.737 227.501 265.11 227.501 271.737V467.737C227.501 474.365 232.874 479.737 239.501 479.737H521.501C528.128 479.737 533.501 474.365 533.501 467.737Z" stroke="#1E223B" stroke-width="2" stroke-linecap="round" stroke-linejoin="round"/>
<path d="M509.501 455.737V283.737H251.501V455.737H509.501Z" stroke="#1E223B" stroke-width="2" stroke-linecap="round" stroke-linejoin="round"/>
<g opacity="0.1">
<path opacity="0.1" d="M419.25 633.737H341.75C339.403 633.737 337.5 635.64 337.5 637.987V689.487C337.5 691.835 339.403 693.737 341.75 693.737H419.25C421.597 693.737 423.5 691.835 423.5 689.487V637.987C423.5 635.64 421.597 633.737 419.25 633.737Z" fill="#1E223B"/>
</g>
<path d="M419.25 633.737H341.75C339.403 633.737 337.5 635.64 337.5 637.987V689.487C337.5 691.835 339.403 693.737 341.75 693.737H419.25C421.597 693.737 423.5 691.835 423.5 689.487V637.987C423.5 635.64 421.597 633.737 419.25 633.737Z" stroke="#1E223B" stroke-width="2" stroke-linecap="round" stroke-linejoin="round"/>
<g style="mix-blend-mode:multiply" opacity="0.11">
<path d="M481.5 229.737H293.5C290.186 229.737 287.5 232.424 287.5 235.737V447.737C287.5 451.051 290.186 453.737 293.5 453.737H481.5C484.814 453.737 487.5 451.051 487.5 447.737V235.737C487.5 232.424 484.814 229.737 481.5 229.737Z" fill="#161616"/>
<path d="M481.5 229.737H293.5C290.186 229.737 287.5 232.424 287.5 235.737V447.737C287.5 451.051 290.186 453.737 293.5 453.737H481.5C484.814 453.737 487.5 451.051 487.5 447.737V235.737C487.5 232.424 484.814 229.737 481.5 229.737Z" stroke="#1E223B" stroke-miterlimit="10"/>
</g>
<path d="M476 225.737H288C284.686 225.737 282 228.424 282 231.737V443.737C282 447.051 284.686 449.737 288 449.737H476C479.314 449.737 482 447.051 482 443.737V231.737C482 228.424 479.314 225.737 476 225.737Z" fill="white"/>
<path d="M282 415.737H482V443.737C482 445.329 481.368 446.855 480.243 447.98C479.117 449.105 477.591 449.737 476 449.737H288C286.409 449.737 284.883 449.105 283.757 447.98C282.632 446.855 282 445.329 282 443.737V415.737Z" fill="#EFEFEF"/>
<path d="M476 225.737H288C284.686 225.737 282 228.424 282 231.737V443.737C282 447.051 284.686 449.737 288 449.737H476C479.314 449.737 482 447.051 482 443.737V231.737C482 228.424 479.314 225.737 476 225.737Z" stroke="#1E223B" stroke-width="2" stroke-linecap="round" stroke-linejoin="round"/>
<path d="M287.427 225.737H476.573C477.286 225.737 477.992 225.878 478.65 226.151C479.309 226.423 479.907 226.823 480.411 227.327C480.915 227.831 481.314 228.43 481.587 229.088C481.86 229.747 482 230.453 482 231.165V243.738H282V231.165C282 230.453 282.14 229.747 282.413 229.088C282.685 228.43 283.085 227.831 283.589 227.327C284.093 226.823 284.691 226.423 285.35 226.151C286.008 225.878 286.714 225.737 287.427 225.737V225.737Z" fill="#363D56"/>
<path d="M287.427 225.737H476.573C477.286 225.737 477.992 225.878 478.65 226.151C479.309 226.423 479.907 226.823 480.411 227.327C480.915 227.831 481.314 228.43 481.587 229.088C481.86 229.747 482 230.453 482 231.165V243.738H282V231.165C282 230.453 282.14 229.747 282.413 229.088C282.685 228.43 283.085 227.831 283.589 227.327C284.093 226.823 284.691 226.423 285.35 226.151C286.008 225.878 286.714 225.737 287.427 225.737V225.737Z" stroke="#1E223B" stroke-width="2" stroke-linecap="round" stroke-linejoin="round"/>
<path d="M482 243.737H282V251.737H482V243.737Z" fill="#424960"/>
<path d="M482 243.737H282V251.737H482V243.737Z" stroke="#1E223B" stroke-width="2" stroke-linecap="round" stroke-linejoin="round"/>
<path d="M293.167 237.737C294.824 237.737 296.167 236.394 296.167 234.737C296.167 233.08 294.824 231.737 293.167 231.737C291.51 231.737 290.167 233.08 290.167 234.737C290.167 236.394 291.51 237.737 293.167 237.737Z" fill="#F73E39"/>
<path d="M293.167 237.737C294.824 237.737 296.167 236.394 296.167 234.737C296.167 233.08 294.824 231.737 293.167 231.737C291.51 231.737 290.167 233.08 290.167 234.737C290.167 236.394 291.51 237.737 293.167 237.737Z" stroke="#1E223B" stroke-width="2" stroke-linecap="round" stroke-linejoin="round"/>
<path d="M305.435 237.737C307.092 237.737 308.435 236.394 308.435 234.737C308.435 233.08 307.092 231.737 305.435 231.737C303.778 231.737 302.435 233.08 302.435 234.737C302.435 236.394 303.778 237.737 305.435 237.737Z" fill="#383838"/>
<path d="M305.435 237.737C307.092 237.737 308.435 236.394 308.435 234.737C308.435 233.08 307.092 231.737 305.435 231.737C303.778 231.737 302.435 233.08 302.435 234.737C302.435 236.394 303.778 237.737 305.435 237.737Z" stroke="#1E223B" stroke-width="2" stroke-linecap="round" stroke-linejoin="round"/>
<path d="M316.662 237.737C318.319 237.737 319.662 236.394 319.662 234.737C319.662 233.08 318.319 231.737 316.662 231.737C315.005 231.737 313.662 233.08 313.662 234.737C313.662 236.394 315.005 237.737 316.662 237.737Z" fill="#C6C6C6"/>
<path d="M316.662 237.737C318.319 237.737 319.662 236.394 319.662 234.737C319.662 233.08 318.319 231.737 316.662 231.737C315.005 231.737 313.662 233.08 313.662 234.737C313.662 236.394 315.005 237.737 316.662 237.737Z" stroke="#1E223B" stroke-width="2" stroke-linecap="round" stroke-linejoin="round"/>
<path opacity="0.28" d="M395.5 231.737H333.5C331.843 231.737 330.5 233.08 330.5 234.737C330.5 236.394 331.843 237.737 333.5 237.737H395.5C397.157 237.737 398.5 236.394 398.5 234.737C398.5 233.08 397.157 231.737 395.5 231.737Z" fill="#8289A3"/>
<path d="M48.133 351.112C59.393 351.112 68.521 341.984 68.521 330.724C68.521 319.464 59.393 310.336 48.133 310.336C36.873 310.336 27.745 319.464 27.745 330.724C27.745 341.984 36.873 351.112 48.133 351.112Z" stroke="#1E223B" stroke-width="2" stroke-linecap="round" stroke-linejoin="round"/>
<path d="M48.133 339.462C52.9589 339.462 56.871 335.55 56.871 330.724C56.871 325.898 52.9589 321.986 48.133 321.986C43.3071 321.986 39.395 325.898 39.395 330.724C39.395 335.55 43.3071 339.462 48.133 339.462Z" stroke="#1E223B" stroke-width="2" stroke-linecap="round" stroke-linejoin="round"/>
<path d="M79.878 301.476L67.266 308.758L67.285 308.79C66.3639 307.986 65.393 307.24 64.378 306.558L64.412 306.568L68.181 292.5C68.4806 291.381 68.3236 290.188 67.7443 289.185C67.1651 288.182 66.211 287.449 65.092 287.149L55.245 284.511C54.1259 284.211 52.9336 284.368 51.9304 284.948C50.9271 285.527 50.195 286.481 49.895 287.6L46.126 301.667H46.147C44.9383 301.75 43.7359 301.908 42.547 302.141L42.563 302.131L35.282 289.52C34.9953 289.023 34.6134 288.587 34.1583 288.238C33.7032 287.888 33.1837 287.632 32.6295 287.484C32.0752 287.335 31.4972 287.297 30.9283 287.372C30.3594 287.447 29.8109 287.633 29.314 287.92L20.486 293.02C19.989 293.307 19.5533 293.688 19.2039 294.143C18.8545 294.598 18.5982 295.118 18.4496 295.672C18.301 296.226 18.2631 296.804 18.338 297.373C18.4128 297.942 18.5991 298.49 18.886 298.987L26.167 311.599L26.183 311.59C25.3863 312.504 24.6475 313.468 23.971 314.474L23.977 314.454L9.90997 310.684C8.79076 310.384 7.59837 310.542 6.59508 311.121C5.59178 311.701 4.85974 312.655 4.55997 313.774L1.92097 323.62C1.62135 324.739 1.77854 325.932 2.358 326.935C2.93746 327.939 3.89173 328.671 5.01097 328.971L19.077 332.74L19.086 332.706C19.1688 333.926 19.3288 335.139 19.565 336.339L19.547 336.307L6.93497 343.588C5.93158 344.167 5.19938 345.122 4.89934 346.241C4.5993 347.36 4.756 348.552 5.33498 349.556L10.435 358.384C10.7217 358.881 11.1035 359.317 11.5586 359.666C12.0138 360.016 12.5333 360.272 13.0875 360.42C13.6417 360.569 14.2198 360.607 14.7887 360.532C15.3575 360.457 15.9061 360.271 16.403 359.984L29.014 352.703L28.986 352.655C29.9183 353.469 30.9016 354.222 31.93 354.91L31.869 354.894L28.1 368.96C27.8 370.079 27.957 371.272 28.5363 372.275C29.1156 373.279 30.0698 374.011 31.189 374.311L41.036 376.949C42.155 377.249 43.3473 377.092 44.3506 376.512C45.3539 375.933 46.086 374.979 46.386 373.86L50.155 359.793L50.081 359.773C51.3256 359.691 52.5636 359.529 53.787 359.286L53.722 359.324L61.004 371.935C61.2907 372.432 61.6725 372.868 62.1276 373.217C62.5828 373.567 63.1023 373.823 63.6565 373.971C64.2107 374.12 64.7888 374.158 65.3577 374.083C65.9265 374.008 66.4751 373.822 66.972 373.535L75.8 368.435C76.8033 367.856 77.5355 366.902 77.8355 365.783C78.1356 364.664 77.9789 363.471 77.4 362.468L70.119 349.856L70.054 349.893C70.8756 348.955 71.6355 347.964 72.329 346.927L72.309 347.001L86.375 350.771C86.9292 350.919 87.5073 350.957 88.0762 350.882C88.645 350.808 89.1936 350.621 89.6905 350.334C90.1874 350.047 90.6229 349.665 90.9721 349.21C91.3214 348.755 91.5775 348.235 91.726 347.681L94.364 337.835C94.5126 337.281 94.5506 336.703 94.4758 336.134C94.401 335.565 94.2149 335.016 93.928 334.52C93.6412 334.023 93.2592 333.587 92.804 333.238C92.3488 332.889 91.8292 332.632 91.275 332.484L77.2 328.72L77.183 328.781C77.1014 327.546 76.9407 326.318 76.702 325.104L76.73 325.153L89.342 317.872C90.3453 317.293 91.0776 316.338 91.3776 315.219C91.6776 314.1 91.5209 312.908 90.942 311.904L85.842 303.076C85.2628 302.073 84.3093 301.342 83.1911 301.042C82.0728 300.742 80.8812 300.898 79.878 301.476Z" stroke="#1E223B" stroke-width="2" stroke-linecap="round" stroke-linejoin="round"/>
<g opacity="0.32">
<path opacity="0.32" d="M321.942 293.012C326.206 293.012 329.662 289.556 329.662 285.292C329.662 281.029 326.206 277.572 321.942 277.572C317.678 277.572 314.222 281.029 314.222 285.292C314.222 289.556 317.678 293.012 321.942 293.012Z" stroke="#1E223B" stroke-linecap="round" stroke-linejoin="round"/>
<path opacity="0.32" d="M321.942 288.601C323.769 288.601 325.251 287.12 325.251 285.292C325.251 283.465 323.769 281.983 321.942 281.983C320.114 281.983 318.633 283.465 318.633 285.292C318.633 287.12 320.114 288.601 321.942 288.601Z" stroke="#1E223B" stroke-linecap="round" stroke-linejoin="round"/>
<path opacity="0.32" d="M338.274 285.961L332.947 284.534V284.548C332.916 284.086 332.856 283.626 332.767 283.172L332.773 283.183L337.549 280.426C337.928 280.205 338.204 279.844 338.317 279.42C338.429 278.996 338.369 278.545 338.149 278.166L336.219 274.824C336.111 274.635 335.966 274.47 335.794 274.338C335.622 274.206 335.425 274.109 335.215 274.052C335.005 273.996 334.786 273.982 334.571 274.01C334.356 274.038 334.148 274.109 333.96 274.218L329.184 276.975V276.982C328.838 276.68 328.473 276.4 328.092 276.144H328.099L329.526 270.817C329.64 270.393 329.58 269.941 329.361 269.561C329.142 269.182 328.781 268.904 328.357 268.791L324.628 267.791C324.204 267.677 323.753 267.737 323.373 267.956C322.993 268.176 322.716 268.537 322.602 268.961L321.175 274.287H321.182C320.724 274.318 320.268 274.378 319.817 274.467H319.824L317.067 269.692C316.848 269.312 316.486 269.034 316.062 268.921C315.639 268.807 315.187 268.866 314.807 269.086L311.464 271.016C311.084 271.235 310.807 271.597 310.694 272.02C310.58 272.444 310.64 272.896 310.859 273.276L313.616 278.052L313.627 278.045C313.323 278.393 313.041 278.761 312.783 279.145V279.131L307.457 277.704C307.247 277.647 307.028 277.633 306.813 277.661C306.597 277.69 306.39 277.76 306.202 277.869C306.013 277.978 305.849 278.122 305.716 278.295C305.584 278.467 305.487 278.664 305.431 278.874L304.431 282.602C304.317 283.026 304.377 283.477 304.596 283.857C304.816 284.237 305.177 284.515 305.601 284.629L310.927 286.056L310.933 286.035C310.964 286.502 311.026 286.967 311.117 287.427L311.105 287.407L306.329 290.164C306.141 290.272 305.976 290.417 305.844 290.589C305.711 290.762 305.614 290.958 305.558 291.168C305.502 291.378 305.488 291.597 305.516 291.812C305.545 292.028 305.615 292.235 305.724 292.424L307.654 295.766C307.763 295.954 307.907 296.119 308.079 296.251C308.252 296.383 308.449 296.481 308.658 296.537C308.868 296.593 309.087 296.607 309.303 296.579C309.518 296.551 309.726 296.48 309.914 296.372L314.689 293.615L314.675 293.59C315.03 293.901 315.405 294.188 315.797 294.451L315.77 294.444L314.343 299.771C314.287 299.98 314.272 300.199 314.301 300.415C314.329 300.63 314.4 300.838 314.508 301.026C314.617 301.214 314.762 301.379 314.934 301.511C315.106 301.643 315.303 301.74 315.513 301.797L319.241 302.797C319.665 302.91 320.116 302.85 320.496 302.631C320.876 302.412 321.153 302.05 321.267 301.627L322.7 296.3L322.673 296.293C323.143 296.261 323.611 296.199 324.073 296.108L324.048 296.123L326.805 300.898C327.024 301.278 327.386 301.555 327.81 301.668C328.233 301.782 328.685 301.723 329.065 301.504L332.408 299.574C332.788 299.354 333.065 298.993 333.178 298.569C333.292 298.145 333.232 297.694 333.013 297.314L330.256 292.538L330.236 292.55C330.544 292.197 330.83 291.825 331.091 291.437V291.457L336.417 292.885C336.841 292.998 337.292 292.938 337.672 292.719C338.052 292.5 338.329 292.138 338.443 291.715L339.443 287.986C339.556 287.562 339.497 287.111 339.278 286.731C339.058 286.351 338.697 286.074 338.274 285.961V285.961Z" stroke="#1E223B" stroke-linecap="round" stroke-linejoin="round"/>
</g>
<g opacity="0.49">
<path opacity="0.49" d="M702.171 140.725C712.717 140.725 721.267 132.176 721.267 121.629C721.267 111.083 712.717 102.533 702.171 102.533C691.625 102.533 683.075 111.083 683.075 121.629C683.075 132.176 691.625 140.725 702.171 140.725Z" fill="white"/>
<path opacity="0.49" d="M702.171 129.813C706.691 129.813 710.355 126.149 710.355 121.629C710.355 117.109 706.691 113.445 702.171 113.445C697.651 113.445 693.987 117.109 693.987 121.629C693.987 126.149 697.651 129.813 702.171 129.813Z" fill="white"/>
<path opacity="0.49" d="M731.905 94.2356L720.092 101.056L720.11 101.086C719.247 100.332 718.338 99.6341 717.387 98.9956L717.419 99.0046L720.949 85.8286C721.23 84.7804 721.083 83.6637 720.54 82.724C719.998 81.7843 719.104 81.0986 718.056 80.8176L708.833 78.3466C708.314 78.2074 707.773 78.1719 707.24 78.242C706.707 78.3121 706.193 78.4864 705.728 78.755C705.262 79.0237 704.854 79.3814 704.527 79.8077C704.2 80.234 703.96 80.7205 703.821 81.2396L700.291 94.4146L700.311 94.4206C699.177 94.4974 698.05 94.6453 696.935 94.8636L696.95 94.8546L690.13 83.0426C689.588 82.1025 688.694 81.4163 687.646 81.135C686.597 80.8537 685.48 81.0003 684.54 81.5426L676.271 86.3166C675.805 86.5851 675.397 86.9427 675.07 87.3689C674.743 87.7952 674.502 88.2818 674.363 88.8009C674.224 89.32 674.188 89.8614 674.258 90.3943C674.328 90.9272 674.502 91.4411 674.771 91.9066L681.591 103.719L681.606 103.71C680.859 104.565 680.167 105.467 679.534 106.41V106.391L666.359 102.86C665.311 102.579 664.194 102.726 663.254 103.269C662.314 103.811 661.628 104.705 661.347 105.754L658.876 114.977C658.595 116.025 658.743 117.142 659.285 118.081C659.828 119.021 660.722 119.707 661.77 119.988L674.945 123.518L674.953 123.487C675.031 124.628 675.181 125.764 675.402 126.887L675.385 126.857L663.572 133.677C663.106 133.945 662.698 134.302 662.371 134.729C662.044 135.155 661.803 135.641 661.664 136.16C661.525 136.679 661.489 137.221 661.559 137.754C661.629 138.286 661.803 138.8 662.072 139.266L666.846 147.535C667.388 148.475 668.282 149.161 669.33 149.442C670.379 149.723 671.496 149.577 672.436 149.035L684.248 142.215L684.222 142.169C685.095 142.931 686.016 143.637 686.979 144.282L686.922 144.266L683.392 157.442C683.253 157.961 683.217 158.502 683.287 159.035C683.358 159.567 683.532 160.081 683.801 160.546C684.069 161.012 684.427 161.42 684.853 161.747C685.279 162.074 685.766 162.314 686.285 162.453L695.508 164.924C696.027 165.063 696.568 165.098 697.101 165.028C697.634 164.958 698.148 164.784 698.613 164.515C699.079 164.246 699.486 163.889 699.814 163.463C700.141 163.036 700.381 162.55 700.52 162.031L704.05 148.856L703.981 148.837C705.146 148.76 706.305 148.608 707.451 148.381L707.391 148.416L714.211 160.228C714.48 160.693 714.837 161.101 715.263 161.429C715.69 161.756 716.176 161.996 716.695 162.136C717.214 162.275 717.756 162.31 718.289 162.24C718.822 162.17 719.336 161.996 719.801 161.728L728.069 156.954C728.535 156.685 728.943 156.328 729.27 155.901C729.598 155.475 729.838 154.989 729.977 154.469C730.117 153.95 730.152 153.409 730.082 152.876C730.012 152.343 729.838 151.829 729.569 151.364L722.749 139.552L722.689 139.587C723.458 138.707 724.17 137.78 724.819 136.809L724.801 136.878L737.976 140.409C739.024 140.689 740.141 140.542 741.081 139.999C742.021 139.457 742.707 138.563 742.988 137.515L745.459 128.293C745.74 127.244 745.593 126.127 745.05 125.187C744.507 124.247 743.613 123.562 742.565 123.281L729.39 119.751L729.375 119.808C729.299 118.651 729.148 117.501 728.924 116.364L728.95 116.409L740.763 109.589C741.229 109.32 741.637 108.963 741.964 108.537C742.291 108.11 742.532 107.624 742.671 107.105C742.81 106.586 742.846 106.044 742.776 105.512C742.706 104.979 742.532 104.465 742.263 104L737.5 95.7336C737.231 95.2676 736.873 94.8592 736.447 94.5316C736.02 94.2041 735.533 93.9639 735.013 93.8248C734.493 93.6856 733.951 93.6503 733.418 93.7208C732.885 93.7913 732.371 93.9662 731.905 94.2356V94.2356Z" fill="white"/>
</g>
<path d="M702.178 140.725C712.724 140.725 721.274 132.176 721.274 121.629C721.274 111.083 712.724 102.533 702.178 102.533C691.632 102.533 683.082 111.083 683.082 121.629C683.082 132.176 691.632 140.725 702.178 140.725Z" stroke="#1E223B" stroke-width="2" stroke-linecap="round" stroke-linejoin="round"/>
<path d="M702.178 129.813C706.698 129.813 710.362 126.149 710.362 121.629C710.362 117.109 706.698 113.445 702.178 113.445C697.658 113.445 693.994 117.109 693.994 121.629C693.994 126.149 697.658 129.813 702.178 129.813Z" stroke="#1E223B" stroke-width="2" stroke-linecap="round" stroke-linejoin="round"/>
<path d="M742.573 123.284L729.398 119.754L729.389 119.787C729.312 118.645 729.162 117.51 728.942 116.387L728.958 116.415L740.771 109.595C741.237 109.326 741.645 108.969 741.972 108.543C742.299 108.117 742.54 107.63 742.679 107.111C742.818 106.592 742.854 106.051 742.784 105.518C742.714 104.985 742.54 104.471 742.271 104.006L737.5 95.7337C736.958 94.7936 736.064 94.1075 735.016 93.8262C733.967 93.5449 732.85 93.6915 731.91 94.2337L720.097 101.054L720.107 101.072C719.252 100.324 718.35 99.6313 717.407 98.9977H717.424L720.954 85.8218C721.235 84.7735 721.087 83.6567 720.545 82.7169C720.002 81.7772 719.108 81.0915 718.06 80.8108L708.838 78.3397C708.319 78.2006 707.778 78.1651 707.245 78.2351C706.712 78.3052 706.198 78.4796 705.733 78.7482C705.267 79.0168 704.859 79.3745 704.532 79.8008C704.205 80.2271 703.965 80.7137 703.826 81.2328L700.296 94.4078H700.313C699.179 94.4851 698.052 94.6337 696.937 94.8527L696.955 94.8428L690.135 83.0308C689.593 82.0907 688.699 81.4045 687.651 81.1232C686.602 80.8419 685.485 80.9885 684.545 81.5308L676.276 86.3047C675.81 86.5732 675.402 86.9308 675.075 87.3571C674.748 87.7834 674.507 88.2699 674.368 88.789C674.229 89.3081 674.193 89.8496 674.263 90.3825C674.333 90.9154 674.507 91.4292 674.776 91.8948L681.596 103.707L681.624 103.691C680.871 104.554 680.173 105.463 679.535 106.414L679.544 106.381L666.369 102.85C665.321 102.569 664.204 102.716 663.264 103.259C662.324 103.802 661.638 104.695 661.357 105.744L658.886 114.966C658.605 116.014 658.752 117.131 659.295 118.071C659.837 119.011 660.731 119.697 661.779 119.978L674.955 123.508L674.968 123.458C675.047 124.614 675.199 125.764 675.424 126.901L675.395 126.85L663.582 133.67C663.116 133.938 662.708 134.296 662.381 134.722C662.054 135.148 661.813 135.634 661.674 136.153C661.535 136.673 661.499 137.214 661.569 137.747C661.639 138.28 661.813 138.793 662.082 139.259L666.856 147.528C667.398 148.468 668.292 149.154 669.34 149.435C670.389 149.717 671.506 149.57 672.446 149.028L684.258 142.208L684.223 142.146C685.102 142.915 686.029 143.627 687 144.277L686.932 144.259L683.402 157.434C683.263 157.953 683.227 158.494 683.297 159.027C683.368 159.56 683.542 160.073 683.81 160.539C684.079 161.004 684.437 161.412 684.863 161.739C685.289 162.067 685.776 162.307 686.295 162.446L695.518 164.917C696.037 165.056 696.578 165.092 697.111 165.022C697.644 164.952 698.158 164.777 698.623 164.509C699.088 164.24 699.496 163.882 699.823 163.456C700.15 163.029 700.39 162.543 700.529 162.024L704.06 148.849L703.992 148.831C705.158 148.753 706.317 148.6 707.463 148.373L707.401 148.409L714.221 160.221C714.489 160.686 714.847 161.095 715.273 161.422C715.699 161.75 716.186 161.99 716.705 162.129C717.224 162.268 717.766 162.304 718.299 162.234C718.832 162.164 719.345 161.99 719.811 161.721L728.079 156.947C728.545 156.678 728.953 156.321 729.28 155.895C729.608 155.468 729.848 154.982 729.987 154.463C730.127 153.943 730.162 153.402 730.092 152.869C730.022 152.336 729.848 151.822 729.579 151.357L722.759 139.545L722.708 139.575C723.472 138.703 724.178 137.782 724.824 136.82L724.811 136.871L737.986 140.402C739.034 140.682 740.151 140.535 741.091 139.993C742.031 139.45 742.717 138.556 742.998 137.508L745.469 128.286C745.747 127.238 745.598 126.124 745.055 125.186C744.512 124.249 743.619 123.564 742.573 123.284V123.284Z" stroke="#1E223B" stroke-width="2" stroke-linecap="round" stroke-linejoin="round"/>
<path d="M457.47 123.288H431.27L403.93 141.515V123.288H384.564C382.147 123.288 379.829 122.328 378.12 120.619C376.411 118.91 375.451 116.592 375.451 114.175V64.0525C375.451 61.6355 376.411 59.3176 378.12 57.6086C379.829 55.8996 382.147 54.9395 384.564 54.9395H457.47C458.667 54.9393 459.852 55.1749 460.958 55.6329C462.063 56.0908 463.068 56.762 463.914 57.6082C464.761 58.4545 465.432 59.4591 465.89 60.5648C466.348 61.6705 466.584 62.8556 466.584 64.0525V114.175C466.584 115.372 466.348 116.557 465.89 117.663C465.432 118.769 464.761 119.773 463.914 120.62C463.068 121.466 462.063 122.137 460.958 122.595C459.852 123.053 458.667 123.289 457.47 123.288V123.288Z" fill="white"/>
<path d="M457.47 123.288H431.27L403.93 141.515V123.288H384.564C382.147 123.288 379.829 122.328 378.12 120.619C376.411 118.91 375.451 116.592 375.451 114.175V64.0525C375.451 61.6355 376.411 59.3176 378.12 57.6086C379.829 55.8996 382.147 54.9395 384.564 54.9395H457.47C458.667 54.9393 459.852 55.1749 460.958 55.6329C462.063 56.0908 463.068 56.762 463.914 57.6082C464.761 58.4545 465.432 59.4591 465.89 60.5648C466.348 61.6705 466.584 62.8556 466.584 64.0525V114.175C466.584 115.372 466.348 116.557 465.89 117.663C465.432 118.769 464.761 119.773 463.914 120.62C463.068 121.466 462.063 122.137 460.958 122.595C459.852 123.053 458.667 123.289 457.47 123.288V123.288Z" stroke="#1E223B" stroke-width="2" stroke-linecap="round" stroke-linejoin="round"/>
<path opacity="0.5" d="M458.4 45.6574H475.366L493.066 57.4574V45.6574H505.6C507.165 45.6574 508.665 45.0358 509.772 43.9293C510.878 42.8229 511.5 41.3222 511.5 39.7574V7.3004C511.5 5.73562 510.878 4.23493 509.772 3.12846C508.665 2.022 507.165 1.40039 505.6 1.40039H458.4C456.835 1.40039 455.335 2.022 454.228 3.12846C453.122 4.23493 452.5 5.73562 452.5 7.3004V39.7554C452.5 40.5304 452.652 41.2978 452.949 42.0138C453.245 42.7299 453.679 43.3805 454.227 43.9286C454.775 44.4767 455.426 44.9115 456.142 45.2081C456.858 45.5047 457.625 45.6574 458.4 45.6574V45.6574Z" fill="white"/>
<path d="M458.4 45.6574H475.366L493.066 57.4574V45.6574H505.6C507.165 45.6574 508.665 45.0358 509.772 43.9293C510.878 42.8229 511.5 41.3222 511.5 39.7574V7.3004C511.5 5.73562 510.878 4.23493 509.772 3.12846C508.665 2.022 507.165 1.40039 505.6 1.40039H458.4C456.835 1.40039 455.335 2.022 454.228 3.12846C453.122 4.23493 452.5 5.73562 452.5 7.3004V39.7554C452.5 40.5304 452.652 41.2978 452.949 42.0138C453.245 42.7299 453.679 43.3805 454.227 43.9286C454.775 44.4767 455.426 44.9115 456.142 45.2081C456.858 45.5047 457.625 45.6574 458.4 45.6574V45.6574Z" stroke="#1E223B" stroke-width="2" stroke-linecap="round" stroke-linejoin="round"/>
<path d="M519.964 681.97C519.964 684.587 519.188 687.145 517.734 689.321C516.279 691.497 514.213 693.193 511.795 694.194C509.377 695.196 506.717 695.458 504.15 694.947C501.583 694.436 499.226 693.176 497.375 691.325C495.525 689.475 494.265 687.117 493.754 684.55C493.244 681.984 493.506 679.323 494.507 676.905C495.509 674.488 497.205 672.421 499.381 670.967C501.557 669.513 504.115 668.737 506.732 668.737C508.47 668.737 510.19 669.08 511.796 669.745C513.401 670.41 514.86 671.384 516.089 672.613C517.318 673.842 518.292 675.301 518.957 676.906C519.622 678.512 519.964 680.233 519.964 681.97V681.97Z" fill="#DD4814"/>
<path d="M497.734 680.2C497.385 680.2 497.043 680.303 496.752 680.497C496.462 680.691 496.235 680.967 496.101 681.289C495.967 681.612 495.932 681.967 496 682.31C496.067 682.653 496.235 682.968 496.482 683.215C496.729 683.462 497.043 683.631 497.386 683.7C497.729 683.768 498.084 683.734 498.407 683.6C498.73 683.467 499.006 683.241 499.201 682.951C499.395 682.661 499.499 682.319 499.5 681.97C499.5 681.738 499.455 681.508 499.366 681.293C499.278 681.078 499.148 680.883 498.984 680.719C498.82 680.555 498.625 680.424 498.411 680.335C498.196 680.246 497.966 680.2 497.734 680.2V680.2ZM510.348 688.229C510.045 688.404 509.801 688.664 509.647 688.977C509.492 689.29 509.434 689.642 509.479 689.989C509.525 690.335 509.672 690.66 509.902 690.923C510.133 691.185 510.436 691.374 510.773 691.464C511.11 691.555 511.467 691.543 511.798 691.431C512.128 691.319 512.419 691.111 512.631 690.834C512.844 690.557 512.97 690.223 512.993 689.875C513.016 689.526 512.935 689.179 512.76 688.876C512.525 688.471 512.139 688.176 511.687 688.055C511.235 687.934 510.753 687.998 510.348 688.232V688.229ZM501.572 681.966C501.571 681.138 501.77 680.322 502.152 679.587C502.534 678.852 503.088 678.22 503.766 677.745L502.474 675.581C500.904 676.628 499.775 678.217 499.301 680.043C499.587 680.276 499.817 680.569 499.975 680.902C500.133 681.234 500.215 681.598 500.215 681.967C500.215 682.335 500.133 682.699 499.975 683.031C499.817 683.364 499.587 683.657 499.301 683.89C499.775 685.717 500.904 687.305 502.474 688.352L503.766 686.188C503.088 685.713 502.535 685.081 502.153 684.347C501.771 683.613 501.572 682.797 501.572 681.969V681.966ZM506.732 676.806C508.021 676.806 509.263 677.289 510.214 678.158C511.165 679.028 511.756 680.222 511.871 681.506L514.389 681.469C514.269 679.585 513.457 677.812 512.109 676.491C511.765 676.621 511.396 676.673 511.03 676.643C510.663 676.613 510.308 676.502 509.99 676.318C509.671 676.134 509.398 675.882 509.189 675.579C508.98 675.276 508.841 674.931 508.782 674.568C506.963 674.064 505.023 674.247 503.331 675.084L504.558 677.284C505.239 676.969 505.981 676.807 506.732 676.809V676.806ZM506.732 687.127C505.981 687.128 505.239 686.964 504.558 686.647L503.331 688.847C505.023 689.683 506.963 689.866 508.782 689.362C508.841 688.999 508.98 688.654 509.189 688.351C509.398 688.048 509.671 687.796 509.99 687.612C510.308 687.428 510.663 687.317 511.03 687.287C511.396 687.257 511.765 687.309 512.109 687.439C513.457 686.118 514.269 684.345 514.389 682.461L511.871 682.424C511.758 683.709 511.167 684.905 510.216 685.776C509.265 686.647 508.022 687.13 506.732 687.13V687.127ZM510.348 675.704C510.651 675.878 510.998 675.959 511.346 675.936C511.695 675.913 512.029 675.788 512.306 675.575C512.583 675.362 512.791 675.072 512.903 674.741C513.015 674.411 513.026 674.054 512.936 673.717C512.846 673.38 512.657 673.077 512.395 672.846C512.132 672.616 511.807 672.469 511.461 672.423C511.114 672.378 510.762 672.436 510.449 672.59C510.136 672.745 509.876 672.989 509.701 673.291C509.584 673.492 509.509 673.714 509.478 673.944C509.447 674.175 509.463 674.409 509.523 674.633C509.583 674.858 509.687 675.068 509.828 675.253C509.97 675.437 510.147 675.591 510.348 675.707V675.704Z" fill="white"/>
<path d="M63.132 562.759L91.189 546.453L91.103 576.956L63.045 593.261L63.132 562.759Z" fill="#777BB4"/>
<path d="M63.132 562.759L91.189 546.453L91.103 576.956L63.045 593.261L63.132 562.759Z" stroke="#1E223B" stroke-width="2" stroke-linecap="round" stroke-linejoin="round"/>
<path opacity="0.88" d="M36.587 547.433L64.644 531.127L91.189 546.453L63.132 562.759L36.587 547.433Z" fill="#FF5855" stroke="#1E223B" stroke-miterlimit="10"/>
<path d="M63.132 562.759L63.045 593.261L36.5 577.935L36.587 547.433L63.132 562.759Z" fill="#0270BB"/>
<path d="M36.587 547.433L64.644 531.127L91.189 546.453L63.132 562.759L36.587 547.433Z" stroke="#1E223B" stroke-width="2" stroke-linecap="round" stroke-linejoin="round"/>
<path d="M63.132 562.759L63.045 593.261L36.5 577.935L36.587 547.433L63.132 562.759Z" stroke="#1E223B" stroke-width="2" stroke-linecap="round" stroke-linejoin="round"/>
<path opacity="0.59" d="M42.545 519.737C45.8587 519.737 48.545 517.051 48.545 513.737C48.545 510.424 45.8587 507.737 42.545 507.737C39.2313 507.737 36.545 510.424 36.545 513.737C36.545 517.051 39.2313 519.737 42.545 519.737Z" fill="white"/>
<path d="M42.545 519.737C45.8587 519.737 48.545 517.051 48.545 513.737C48.545 510.424 45.8587 507.737 42.545 507.737C39.2313 507.737 36.545 510.424 36.545 513.737C36.545 517.051 39.2313 519.737 42.545 519.737Z" stroke="#1E223B" stroke-width="2" stroke-linecap="round" stroke-linejoin="round"/>
<path opacity="0.59" d="M63.045 519.737C66.3587 519.737 69.045 517.051 69.045 513.737C69.045 510.424 66.3587 507.737 63.045 507.737C59.7313 507.737 57.045 510.424 57.045 513.737C57.045 517.051 59.7313 519.737 63.045 519.737Z" fill="white"/>
<path d="M63.045 519.737C66.3587 519.737 69.045 517.051 69.045 513.737C69.045 510.424 66.3587 507.737 63.045 507.737C59.7313 507.737 57.045 510.424 57.045 513.737C57.045 517.051 59.7313 519.737 63.045 519.737Z" stroke="#1E223B" stroke-width="2" stroke-linecap="round" stroke-linejoin="round"/>
<path opacity="0.59" d="M83.545 519.737C86.8587 519.737 89.545 517.051 89.545 513.737C89.545 510.424 86.8587 507.737 83.545 507.737C80.2313 507.737 77.545 510.424 77.545 513.737C77.545 517.051 80.2313 519.737 83.545 519.737Z" fill="white"/>
<path opacity="0.32" d="M767.25 430.49C789.065 430.49 806.75 412.805 806.75 390.99C806.75 369.175 789.065 351.49 767.25 351.49C745.435 351.49 727.75 369.175 727.75 390.99C727.75 412.805 745.435 430.49 767.25 430.49Z" fill="white"/>
<path d="M83.545 519.737C86.8587 519.737 89.545 517.051 89.545 513.737C89.545 510.424 86.8587 507.737 83.545 507.737C80.2313 507.737 77.545 510.424 77.545 513.737C77.545 517.051 80.2313 519.737 83.545 519.737Z" stroke="#1E223B" stroke-width="2" stroke-linecap="round" stroke-linejoin="round"/>
<path opacity="0.12" d="M767.792 391.419L746.454 379.019L746.519 402.217L767.858 414.617L767.792 391.419Z" fill="#0270BB"/>
<path d="M767.792 391.419L746.454 379.019L746.519 402.217L767.858 414.617L767.792 391.419Z" stroke="#1E223B" stroke-width="2" stroke-linecap="round" stroke-linejoin="round"/>
<path opacity="0.47" d="M787.98 379.764L766.642 367.363L746.454 379.019L767.792 391.419L787.98 379.764Z" fill="#0270BB"/>
<path d="M787.98 379.764L766.642 367.363L746.454 379.019L767.792 391.419L787.98 379.764Z" stroke="#1E223B" stroke-width="2" stroke-linecap="round" stroke-linejoin="round"/>
<path d="M767.792 391.419L767.858 414.617L788.046 402.962L787.98 379.764L767.792 391.419Z" fill="white" stroke="#1E223B" stroke-width="2" stroke-linecap="round" stroke-linejoin="round"/>
<path d="M767.792 391.419L767.858 414.617L788.046 402.962L787.98 379.764L767.792 391.419Z" stroke="#1E223B" stroke-width="2" stroke-linecap="round" stroke-linejoin="round"/>
<path d="M767.25 430.49C789.065 430.49 806.75 412.805 806.75 390.99C806.75 369.175 789.065 351.49 767.25 351.49C745.435 351.49 727.75 369.175 727.75 390.99C727.75 412.805 745.435 430.49 767.25 430.49Z" stroke="#1E223B" stroke-width="2" stroke-linecap="round" stroke-linejoin="round"/>
<path d="M669.976 144.479H580.398C573.832 144.479 568.509 149.801 568.509 156.368V192.033C568.509 198.599 573.832 203.922 580.398 203.922H669.976C676.542 203.922 681.865 198.599 681.865 192.033V156.368C681.865 149.801 676.542 144.479 669.976 144.479Z" fill="#777BB4"/>
<path d="M669.976 144.479H580.398C573.832 144.479 568.509 149.801 568.509 156.368V192.033C568.509 198.599 573.832 203.922 580.398 203.922H669.976C676.542 203.922 681.865 198.599 681.865 192.033V156.368C681.865 149.801 676.542 144.479 669.976 144.479Z" stroke="#1E223B" stroke-width="2" stroke-linecap="round" stroke-linejoin="round"/>
<path d="M745.638 415.49H675.644C670.65 415.49 666.602 419.538 666.602 424.532V451.657C666.602 456.651 670.65 460.699 675.644 460.699H745.638C750.632 460.699 754.68 456.651 754.68 451.657V424.532C754.68 419.538 750.632 415.49 745.638 415.49Z" fill="#0270BB"/>
<path d="M745.638 415.49H675.644C670.65 415.49 666.602 419.538 666.602 424.532V451.657C666.602 456.651 670.65 460.699 675.644 460.699H745.638C750.632 460.699 754.68 456.651 754.68 451.657V424.532C754.68 419.538 750.632 415.49 745.638 415.49Z" stroke="#1E223B" stroke-width="2" stroke-linecap="round" stroke-linejoin="round"/>
<path d="M680.184 437.821C680.184 431.359 684.984 426.998 691.163 426.998C692.851 426.951 694.519 427.361 695.993 428.183C697.468 429.006 698.693 430.211 699.539 431.672L696.433 433.303C695.892 432.384 695.122 431.621 694.198 431.088C693.275 430.555 692.229 430.269 691.163 430.26C687.023 430.26 683.948 433.397 683.948 437.821C683.948 442.181 687.023 445.38 691.163 445.38C692.228 445.363 693.271 445.075 694.193 444.542C695.115 444.01 695.886 443.251 696.433 442.337L699.57 443.906C698.715 445.37 697.486 446.581 696.008 447.413C694.531 448.246 692.859 448.67 691.163 448.643C684.983 448.643 680.184 444.251 680.184 437.821Z" fill="white"/>
<path d="M703.488 445.317L705.559 442.463C706.4 443.381 707.422 444.115 708.562 444.617C709.701 445.119 710.933 445.379 712.178 445.38C715.189 445.38 716.35 443.906 716.35 442.494C716.35 438.102 704.178 440.832 704.178 433.147C704.178 429.664 707.19 426.998 711.802 426.998C713.234 426.948 714.662 427.183 716.003 427.689C717.344 428.195 718.571 428.963 719.613 429.947L717.542 432.675C716.737 431.891 715.784 431.275 714.74 430.86C713.695 430.446 712.579 430.242 711.456 430.26C709.323 430.26 707.943 431.327 707.943 432.86C707.943 436.782 720.114 434.366 720.114 442.146C720.114 445.628 717.636 448.639 712.021 448.639C710.447 448.703 708.876 448.441 707.408 447.869C705.939 447.297 704.605 446.428 703.488 445.317Z" fill="white"/>
<path d="M724.472 445.317L726.543 442.463C727.384 443.381 728.407 444.115 729.546 444.617C730.685 445.119 731.917 445.379 733.162 445.38C736.173 445.38 737.334 443.906 737.334 442.494C737.334 438.102 725.162 440.832 725.162 433.147C725.162 429.664 728.174 426.998 732.786 426.998C734.218 426.948 735.646 427.183 736.987 427.689C738.328 428.195 739.555 428.963 740.597 429.947L738.526 432.675C737.721 431.891 736.768 431.275 735.724 430.86C734.679 430.446 733.563 430.242 732.44 430.26C730.307 430.26 728.927 431.327 728.927 432.86C728.927 436.782 741.098 434.366 741.098 442.146C741.098 445.628 738.62 448.639 733.005 448.639C731.431 448.703 729.86 448.441 728.392 447.869C726.923 447.297 725.589 446.428 724.472 445.317V445.317Z" fill="white"/>
<path d="M585.38 187.476V160.826H597.127C602.72 160.826 605.796 164.626 605.796 169.176C605.796 173.691 602.681 177.487 597.127 177.487H590.055V187.476H585.38ZM601.002 169.176C601.002 166.619 599.124 164.942 596.487 164.942H590.055V173.372H596.487C599.124 173.372 601 171.693 601 169.176H601.002Z" fill="white"/>
<path d="M631.24 187.476V175.809H617.376V187.476H612.7V160.826H617.374V171.693H631.24V160.826H635.914V187.476H631.24Z" fill="white"/>
<path d="M644.577 187.476V160.826H656.323C661.916 160.826 664.993 164.626 664.993 169.176C664.993 173.691 661.877 177.487 656.323 177.487H649.251V187.476H644.577ZM660.198 169.176C660.198 166.619 658.32 164.942 655.683 164.942H649.251V173.372H655.683C658.32 173.372 660.2 171.693 660.2 169.176H660.198Z" fill="white"/>
<path d="M449.063 424.988C449.344 425.395 449.516 425.362 449.734 425.269C449.952 425.176 461.203 421.378 461.547 421.253C461.891 421.128 461.781 421.019 461.672 420.847C461.563 420.675 457.813 415.582 457.625 415.285C457.437 414.988 457.344 415.05 457.047 415.144L445.121 418.245C445.121 418.245 448.781 424.579 449.063 424.985V424.988Z" fill="#F35045"/>
<path d="M462.5 419.8V413.837L458.791 414.825C459.802 416.177 461.382 418.293 462.5 419.8V419.8Z" fill="#F35045"/>
<path d="M458.78 407.483C458.596 407.524 454.526 408.26 454.28 408.293C454.034 408.326 454.113 408.469 454.213 408.611L457.794 413.525C457.794 413.525 462.173 412.438 462.441 412.38L462.504 412.365V411.714C461.704 410.705 459.54 407.957 459.352 407.7C459.127 407.391 458.968 407.441 458.784 407.483H458.78Z" fill="#F35045"/>
<path d="M433.174 399.764C434.055 399.724 434.135 399.925 434.522 400.499L444.25 416.761L456.48 413.831C455.803 412.87 452.726 408.509 452.429 408.093C452.095 407.625 452.437 407.407 452.98 407.316C453.523 407.225 458.203 406.438 458.604 406.38C459.005 406.322 459.323 406.18 459.975 406.965C460.308 407.365 461.439 408.774 462.5 410.094V402.487C462.497 400.698 461.785 398.983 460.519 397.718C459.254 396.452 457.539 395.74 455.75 395.737H433.25C432.362 395.724 431.481 395.893 430.66 396.234C429.84 396.574 429.098 397.08 428.481 397.718C427.753 398.429 427.199 399.297 426.861 400.256C429.066 400.075 432.561 399.792 433.174 399.764V399.764Z" fill="#F35045"/>
<path d="M450.166 427.176C449.134 427.489 448.672 427.644 448 426.706C447.5 426.006 444.776 421.106 443.442 418.687C440.917 419.349 436.296 420.555 434.964 420.875C434.563 421.015 434.124 420.994 433.738 420.818C433.352 420.641 433.05 420.322 432.894 419.927C432.744 419.59 428.931 411.369 426.5 406.095V424.987C426.503 426.776 427.215 428.491 428.481 429.756C429.746 431.021 431.461 431.734 433.25 431.737H455.75C457.539 431.734 459.255 431.022 460.52 429.757C461.785 428.491 462.497 426.776 462.5 424.987V422.768C459.738 423.778 450.861 426.968 450.166 427.176Z" fill="#F35045"/>
<path d="M435 418.981C435.365 418.897 442.215 417.258 442.362 417.227C442.509 417.196 442.602 417.112 442.445 416.84L433.314 401.078C433.231 400.936 433.255 400.888 433.03 400.9C432.83 400.911 427.751 401.364 426.575 401.462C426.54 401.711 426.518 401.961 426.51 402.212C427.704 404.655 434.554 418.782 434.592 418.897C434.63 419.012 434.634 419.065 435 418.981V418.981Z" fill="#F35045"/>
<path opacity="0.32" d="M344.5 281.737H438.5" stroke="#1E223B" stroke-width="2" stroke-linecap="round" stroke-linejoin="round"/>
<path opacity="0.32" d="M344.5 289.737H404.5" stroke="#1E223B" stroke-width="2" stroke-linecap="round" stroke-linejoin="round"/>
<path opacity="0.15" d="M316.5 328.737H410.5" stroke="#1E223B" stroke-width="2" stroke-linecap="round" stroke-linejoin="round"/>
<path opacity="0.32" d="M316.5 337.404H376.5" stroke="#1E223B" stroke-width="2" stroke-linecap="round" stroke-linejoin="round"/>
<path opacity="0.32" d="M364.5 346.071H399.5" stroke="#1E223B" stroke-width="2" stroke-linecap="round" stroke-linejoin="round"/>
<path opacity="0.26" d="M316.5 346.071H358.5" stroke="#1E223B" stroke-width="2" stroke-linecap="round" stroke-linejoin="round"/>
<path opacity="0.15" d="M316.5 354.737H352.5" stroke="#1E223B" stroke-width="2" stroke-linecap="round" stroke-linejoin="round"/>
<path d="M320.5 371.071C319.439 371.071 318.422 371.493 317.672 372.243C316.921 372.993 316.5 374.01 316.5 375.071C316.5 376.132 316.921 377.15 317.672 377.9C318.422 378.65 319.439 379.071 320.5 379.071H401.167V371.071H320.5Z" fill="#4AD3A5" stroke="#1E223B" stroke-miterlimit="10"/>
<path d="M446.5 371.071H320.5C318.291 371.071 316.5 372.862 316.5 375.071C316.5 377.28 318.291 379.071 320.5 379.071H446.5C448.709 379.071 450.5 377.28 450.5 375.071C450.5 372.862 448.709 371.071 446.5 371.071Z" stroke="#1E223B" stroke-linecap="round" stroke-linejoin="round"/>
<path d="M517.25 475.737H243.75C242.507 475.737 241.5 476.745 241.5 477.987V486.487C241.5 487.73 242.507 488.737 243.75 488.737H517.25C518.493 488.737 519.5 487.73 519.5 486.487V477.987C519.5 476.745 518.493 475.737 517.25 475.737Z" fill="#263C72"/>
<path d="M519.5 475.737H241.5V488.737H519.5V475.737Z" stroke="#1E223B" stroke-width="2" stroke-linecap="round" stroke-linejoin="round"/>
<path d="M516.5 507.737H500.5C498.843 507.737 497.5 509.08 497.5 510.737V516.737C497.5 518.394 498.843 519.737 500.5 519.737H516.5C518.157 519.737 519.5 518.394 519.5 516.737V510.737C519.5 509.08 518.157 507.737 516.5 507.737Z" fill="#363D56"/>
<path d="M484.5 507.737H468.5C466.843 507.737 465.5 509.08 465.5 510.737V516.737C465.5 518.394 466.843 519.737 468.5 519.737H484.5C486.157 519.737 487.5 518.394 487.5 516.737V510.737C487.5 509.08 486.157 507.737 484.5 507.737Z" fill="#363D56"/>
<path d="M452.5 507.737H436.5C434.843 507.737 433.5 509.08 433.5 510.737V516.737C433.5 518.394 434.843 519.737 436.5 519.737H452.5C454.157 519.737 455.5 518.394 455.5 516.737V510.737C455.5 509.08 454.157 507.737 452.5 507.737Z" fill="#363D56"/>
<path d="M420.5 507.737H404.5C402.843 507.737 401.5 509.08 401.5 510.737V516.737C401.5 518.394 402.843 519.737 404.5 519.737H420.5C422.157 519.737 423.5 518.394 423.5 516.737V510.737C423.5 509.08 422.157 507.737 420.5 507.737Z" fill="#363D56"/>
<path d="M388.5 507.737H372.5C370.843 507.737 369.5 509.08 369.5 510.737V516.737C369.5 518.394 370.843 519.737 372.5 519.737H388.5C390.157 519.737 391.5 518.394 391.5 516.737V510.737C391.5 509.08 390.157 507.737 388.5 507.737Z" fill="#363D56"/>
<path d="M356.5 507.737H340.5C338.843 507.737 337.5 509.08 337.5 510.737V516.737C337.5 518.394 338.843 519.737 340.5 519.737H356.5C358.157 519.737 359.5 518.394 359.5 516.737V510.737C359.5 509.08 358.157 507.737 356.5 507.737Z" fill="#363D56"/>
<path d="M324.5 507.737H308.5C306.843 507.737 305.5 509.08 305.5 510.737V516.737C305.5 518.394 306.843 519.737 308.5 519.737H324.5C326.157 519.737 327.5 518.394 327.5 516.737V510.737C327.5 509.08 326.157 507.737 324.5 507.737Z" fill="#363D56"/>
<path d="M292.5 507.737H276.5C274.843 507.737 273.5 509.08 273.5 510.737V516.737C273.5 518.394 274.843 519.737 276.5 519.737H292.5C294.157 519.737 295.5 518.394 295.5 516.737V510.737C295.5 509.08 294.157 507.737 292.5 507.737Z" fill="#363D56"/>
<path d="M260.5 507.737H244.5C242.843 507.737 241.5 509.08 241.5 510.737V516.737C241.5 518.394 242.843 519.737 244.5 519.737H260.5C262.157 519.737 263.5 518.394 263.5 516.737V510.737C263.5 509.08 262.157 507.737 260.5 507.737Z" fill="#363D56"/>
<path d="M452.5 533.214H436.5C434.843 533.214 433.5 534.557 433.5 536.214V552.214C433.5 553.871 434.843 555.214 436.5 555.214H452.5C454.157 555.214 455.5 553.871 455.5 552.214V536.214C455.5 534.557 454.157 533.214 452.5 533.214Z" fill="#363D56"/>
<path d="M420.5 533.214H404.5C402.843 533.214 401.5 534.557 401.5 536.214V552.214C401.5 553.871 402.843 555.214 404.5 555.214H420.5C422.157 555.214 423.5 553.871 423.5 552.214V536.214C423.5 534.557 422.157 533.214 420.5 533.214Z" fill="#363D56"/>
<path d="M388.5 533.214H372.5C370.843 533.214 369.5 534.557 369.5 536.214V552.214C369.5 553.871 370.843 555.214 372.5 555.214H388.5C390.157 555.214 391.5 553.871 391.5 552.214V536.214C391.5 534.557 390.157 533.214 388.5 533.214Z" fill="#363D56"/>
<path d="M356.5 533.214H340.5C338.843 533.214 337.5 534.557 337.5 536.214V552.214C337.5 553.871 338.843 555.214 340.5 555.214H356.5C358.157 555.214 359.5 553.871 359.5 552.214V536.214C359.5 534.557 358.157 533.214 356.5 533.214Z" fill="#363D56"/>
<path d="M324.5 533.214H308.5C306.843 533.214 305.5 534.557 305.5 536.214V552.214C305.5 553.871 306.843 555.214 308.5 555.214H324.5C326.157 555.214 327.5 553.871 327.5 552.214V536.214C327.5 534.557 326.157 533.214 324.5 533.214Z" fill="#363D56"/>
<path d="M292.5 533.214H276.5C274.843 533.214 273.5 534.557 273.5 536.214V552.214C273.5 553.871 274.843 555.214 276.5 555.214H292.5C294.157 555.214 295.5 553.871 295.5 552.214V536.214C295.5 534.557 294.157 533.214 292.5 533.214Z" fill="#363D56"/>
<path d="M260.5 533.214H244.5C242.843 533.214 241.5 534.557 241.5 536.214V552.214C241.5 553.871 242.843 555.214 244.5 555.214H260.5C262.157 555.214 263.5 553.871 263.5 552.214V536.214C263.5 534.557 262.157 533.214 260.5 533.214Z" fill="#363D56"/>
<path d="M516.5 533.214H500.5C498.843 533.214 497.5 534.557 497.5 536.214V583.726C497.5 585.383 498.843 586.726 500.5 586.726H516.5C518.157 586.726 519.5 585.383 519.5 583.726V536.214C519.5 534.557 518.157 533.214 516.5 533.214Z" fill="#363D56"/>
<path d="M484.5 533.214H468.5C467.704 533.214 466.941 533.53 466.379 534.093C465.816 534.655 465.5 535.418 465.5 536.214V561.726C465.5 562.522 465.184 563.285 464.621 563.847C464.059 564.41 463.296 564.726 462.5 564.726H436.5C435.704 564.726 434.941 565.042 434.379 565.605C433.816 566.167 433.5 566.93 433.5 567.726V583.726C433.5 584.522 433.816 585.285 434.379 585.847C434.941 586.41 435.704 586.726 436.5 586.726H484.5C485.296 586.726 486.059 586.41 486.621 585.847C487.184 585.285 487.5 584.522 487.5 583.726V536.214C487.5 535.418 487.184 534.655 486.621 534.093C486.059 533.53 485.296 533.214 484.5 533.214Z" fill="#363D56"/>
<path d="M420.5 564.726H404.5C402.843 564.726 401.5 566.069 401.5 567.726V583.726C401.5 585.382 402.843 586.726 404.5 586.726H420.5C422.157 586.726 423.5 585.382 423.5 583.726V567.726C423.5 566.069 422.157 564.726 420.5 564.726Z" fill="#363D56"/>
<path d="M388.5 564.726H372.5C370.843 564.726 369.5 566.069 369.5 567.726V583.726C369.5 585.382 370.843 586.726 372.5 586.726H388.5C390.157 586.726 391.5 585.382 391.5 583.726V567.726C391.5 566.069 390.157 564.726 388.5 564.726Z" fill="#363D56"/>
<path d="M356.5 564.726H340.5C338.843 564.726 337.5 566.069 337.5 567.726V583.726C337.5 585.382 338.843 586.726 340.5 586.726H356.5C358.157 586.726 359.5 585.382 359.5 583.726V567.726C359.5 566.069 358.157 564.726 356.5 564.726Z" fill="#363D56"/>
<path d="M324.5 564.726H308.5C306.843 564.726 305.5 566.069 305.5 567.726V583.726C305.5 585.382 306.843 586.726 308.5 586.726H324.5C326.157 586.726 327.5 585.382 327.5 583.726V567.726C327.5 566.069 326.157 564.726 324.5 564.726Z" fill="#363D56"/>
<path d="M292.5 564.726H244.5C242.843 564.726 241.5 566.069 241.5 567.726V583.726C241.5 585.382 242.843 586.726 244.5 586.726H292.5C294.157 586.726 295.5 585.382 295.5 583.726V567.726C295.5 566.069 294.157 564.726 292.5 564.726Z" fill="#363D56"/>
<path d="M516.5 596.237H500.5C498.843 596.237 497.5 597.58 497.5 599.237V615.237C497.5 616.894 498.843 618.237 500.5 618.237H516.5C518.157 618.237 519.5 616.894 519.5 615.237V599.237C519.5 597.58 518.157 596.237 516.5 596.237Z" fill="#363D56"/>
<path d="M484.5 596.237H468.5C466.843 596.237 465.5 597.58 465.5 599.237V615.237C465.5 616.894 466.843 618.237 468.5 618.237H484.5C486.157 618.237 487.5 616.894 487.5 615.237V599.237C487.5 597.58 486.157 596.237 484.5 596.237Z" fill="#363D56"/>
<path d="M452.5 596.237H436.5C434.843 596.237 433.5 597.58 433.5 599.237V615.237C433.5 616.894 434.843 618.237 436.5 618.237H452.5C454.157 618.237 455.5 616.894 455.5 615.237V599.237C455.5 597.58 454.157 596.237 452.5 596.237Z" fill="#363D56"/>
<path d="M420.5 596.237H340.5C338.843 596.237 337.5 597.58 337.5 599.237V615.237C337.5 616.894 338.843 618.237 340.5 618.237H420.5C422.157 618.237 423.5 616.894 423.5 615.237V599.237C423.5 597.58 422.157 596.237 420.5 596.237Z" fill="#363D56"/>
<path d="M324.5 596.237H308.5C306.843 596.237 305.5 597.58 305.5 599.237V615.237C305.5 616.894 306.843 618.237 308.5 618.237H324.5C326.157 618.237 327.5 616.894 327.5 615.237V599.237C327.5 597.58 326.157 596.237 324.5 596.237Z" fill="#363D56"/>
<path d="M292.5 596.237H276.5C274.843 596.237 273.5 597.58 273.5 599.237V615.237C273.5 616.894 274.843 618.237 276.5 618.237H292.5C294.157 618.237 295.5 616.894 295.5 615.237V599.237C295.5 597.58 294.157 596.237 292.5 596.237Z" fill="#363D56"/>
<path d="M260.5 596.237H244.5C242.843 596.237 241.5 597.58 241.5 599.237V615.237C241.5 616.894 242.843 618.237 244.5 618.237H260.5C262.157 618.237 263.5 616.894 263.5 615.237V599.237C263.5 597.58 262.157 596.237 260.5 596.237Z" fill="#363D56"/>
<path d="M516.5 507.737H500.5C498.843 507.737 497.5 509.08 497.5 510.737V516.737C497.5 518.394 498.843 519.737 500.5 519.737H516.5C518.157 519.737 519.5 518.394 519.5 516.737V510.737C519.5 509.08 518.157 507.737 516.5 507.737Z" stroke="#1E223B" stroke-width="2" stroke-linecap="round" stroke-linejoin="round"/>
<path d="M484.5 507.737H468.5C466.843 507.737 465.5 509.08 465.5 510.737V516.737C465.5 518.394 466.843 519.737 468.5 519.737H484.5C486.157 519.737 487.5 518.394 487.5 516.737V510.737C487.5 509.08 486.157 507.737 484.5 507.737Z" stroke="#1E223B" stroke-width="2" stroke-linecap="round" stroke-linejoin="round"/>
<path d="M452.5 507.737H436.5C434.843 507.737 433.5 509.08 433.5 510.737V516.737C433.5 518.394 434.843 519.737 436.5 519.737H452.5C454.157 519.737 455.5 518.394 455.5 516.737V510.737C455.5 509.08 454.157 507.737 452.5 507.737Z" stroke="#1E223B" stroke-width="2" stroke-linecap="round" stroke-linejoin="round"/>
<path d="M420.5 507.737H404.5C402.843 507.737 401.5 509.08 401.5 510.737V516.737C401.5 518.394 402.843 519.737 404.5 519.737H420.5C422.157 519.737 423.5 518.394 423.5 516.737V510.737C423.5 509.08 422.157 507.737 420.5 507.737Z" stroke="#1E223B" stroke-width="2" stroke-linecap="round" stroke-linejoin="round"/>
<path d="M388.5 507.737H372.5C370.843 507.737 369.5 509.08 369.5 510.737V516.737C369.5 518.394 370.843 519.737 372.5 519.737H388.5C390.157 519.737 391.5 518.394 391.5 516.737V510.737C391.5 509.08 390.157 507.737 388.5 507.737Z" stroke="#1E223B" stroke-width="2" stroke-linecap="round" stroke-linejoin="round"/>
<path d="M356.5 507.737H340.5C338.843 507.737 337.5 509.08 337.5 510.737V516.737C337.5 518.394 338.843 519.737 340.5 519.737H356.5C358.157 519.737 359.5 518.394 359.5 516.737V510.737C359.5 509.08 358.157 507.737 356.5 507.737Z" stroke="#1E223B" stroke-width="2" stroke-linecap="round" stroke-linejoin="round"/>
<path d="M324.5 507.737H308.5C306.843 507.737 305.5 509.08 305.5 510.737V516.737C305.5 518.394 306.843 519.737 308.5 519.737H324.5C326.157 519.737 327.5 518.394 327.5 516.737V510.737C327.5 509.08 326.157 507.737 324.5 507.737Z" stroke="#1E223B" stroke-width="2" stroke-linecap="round" stroke-linejoin="round"/>
<path d="M292.5 507.737H276.5C274.843 507.737 273.5 509.08 273.5 510.737V516.737C273.5 518.394 274.843 519.737 276.5 519.737H292.5C294.157 519.737 295.5 518.394 295.5 516.737V510.737C295.5 509.08 294.157 507.737 292.5 507.737Z" stroke="#1E223B" stroke-width="2" stroke-linecap="round" stroke-linejoin="round"/>
<path d="M260.5 507.737H244.5C242.843 507.737 241.5 509.08 241.5 510.737V516.737C241.5 518.394 242.843 519.737 244.5 519.737H260.5C262.157 519.737 263.5 518.394 263.5 516.737V510.737C263.5 509.08 262.157 507.737 260.5 507.737Z" stroke="#1E223B" stroke-width="2" stroke-linecap="round" stroke-linejoin="round"/>
<path d="M452.5 533.214H436.5C434.843 533.214 433.5 534.557 433.5 536.214V552.214C433.5 553.871 434.843 555.214 436.5 555.214H452.5C454.157 555.214 455.5 553.871 455.5 552.214V536.214C455.5 534.557 454.157 533.214 452.5 533.214Z" stroke="#1E223B" stroke-width="2" stroke-linecap="round" stroke-linejoin="round"/>
<path d="M420.5 533.214H404.5C402.843 533.214 401.5 534.557 401.5 536.214V552.214C401.5 553.871 402.843 555.214 404.5 555.214H420.5C422.157 555.214 423.5 553.871 423.5 552.214V536.214C423.5 534.557 422.157 533.214 420.5 533.214Z" stroke="#1E223B" stroke-width="2" stroke-linecap="round" stroke-linejoin="round"/>
<path d="M388.5 533.214H372.5C370.843 533.214 369.5 534.557 369.5 536.214V552.214C369.5 553.871 370.843 555.214 372.5 555.214H388.5C390.157 555.214 391.5 553.871 391.5 552.214V536.214C391.5 534.557 390.157 533.214 388.5 533.214Z" stroke="#1E223B" stroke-width="2" stroke-linecap="round" stroke-linejoin="round"/>
<path d="M356.5 533.214H340.5C338.843 533.214 337.5 534.557 337.5 536.214V552.214C337.5 553.871 338.843 555.214 340.5 555.214H356.5C358.157 555.214 359.5 553.871 359.5 552.214V536.214C359.5 534.557 358.157 533.214 356.5 533.214Z" stroke="#1E223B" stroke-width="2" stroke-linecap="round" stroke-linejoin="round"/>
<path d="M324.5 533.214H308.5C306.843 533.214 305.5 534.557 305.5 536.214V552.214C305.5 553.871 306.843 555.214 308.5 555.214H324.5C326.157 555.214 327.5 553.871 327.5 552.214V536.214C327.5 534.557 326.157 533.214 324.5 533.214Z" stroke="#1E223B" stroke-width="2" stroke-linecap="round" stroke-linejoin="round"/>
<path d="M292.5 533.214H276.5C274.843 533.214 273.5 534.557 273.5 536.214V552.214C273.5 553.871 274.843 555.214 276.5 555.214H292.5C294.157 555.214 295.5 553.871 295.5 552.214V536.214C295.5 534.557 294.157 533.214 292.5 533.214Z" stroke="#1E223B" stroke-width="2" stroke-linecap="round" stroke-linejoin="round"/>
<path d="M260.5 533.214H244.5C242.843 533.214 241.5 534.557 241.5 536.214V552.214C241.5 553.871 242.843 555.214 244.5 555.214H260.5C262.157 555.214 263.5 553.871 263.5 552.214V536.214C263.5 534.557 262.157 533.214 260.5 533.214Z" stroke="#1E223B" stroke-width="2" stroke-linecap="round" stroke-linejoin="round"/>
<path d="M516.5 533.214H500.5C498.843 533.214 497.5 534.557 497.5 536.214V583.726C497.5 585.383 498.843 586.726 500.5 586.726H516.5C518.157 586.726 519.5 585.383 519.5 583.726V536.214C519.5 534.557 518.157 533.214 516.5 533.214Z" stroke="#1E223B" stroke-width="2" stroke-linecap="round" stroke-linejoin="round"/>
<path d="M484.5 533.214H468.5C467.704 533.214 466.941 533.53 466.379 534.093C465.816 534.655 465.5 535.418 465.5 536.214V561.726C465.5 562.522 465.184 563.285 464.621 563.847C464.059 564.41 463.296 564.726 462.5 564.726H436.5C435.704 564.726 434.941 565.042 434.379 565.605C433.816 566.167 433.5 566.93 433.5 567.726V583.726C433.5 584.522 433.816 585.285 434.379 585.847C434.941 586.41 435.704 586.726 436.5 586.726H484.5C485.296 586.726 486.059 586.41 486.621 585.847C487.184 585.285 487.5 584.522 487.5 583.726V536.214C487.5 535.418 487.184 534.655 486.621 534.093C486.059 533.53 485.296 533.214 484.5 533.214Z" stroke="#1E223B" stroke-width="2" stroke-linecap="round" stroke-linejoin="round"/>
<path d="M420.5 564.726H404.5C402.843 564.726 401.5 566.069 401.5 567.726V583.726C401.5 585.382 402.843 586.726 404.5 586.726H420.5C422.157 586.726 423.5 585.382 423.5 583.726V567.726C423.5 566.069 422.157 564.726 420.5 564.726Z" stroke="#1E223B" stroke-width="2" stroke-linecap="round" stroke-linejoin="round"/>
<path d="M388.5 564.726H372.5C370.843 564.726 369.5 566.069 369.5 567.726V583.726C369.5 585.382 370.843 586.726 372.5 586.726H388.5C390.157 586.726 391.5 585.382 391.5 583.726V567.726C391.5 566.069 390.157 564.726 388.5 564.726Z" stroke="#1E223B" stroke-width="2" stroke-linecap="round" stroke-linejoin="round"/>
<path d="M356.5 564.726H340.5C338.843 564.726 337.5 566.069 337.5 567.726V583.726C337.5 585.382 338.843 586.726 340.5 586.726H356.5C358.157 586.726 359.5 585.382 359.5 583.726V567.726C359.5 566.069 358.157 564.726 356.5 564.726Z" stroke="#1E223B" stroke-width="2" stroke-linecap="round" stroke-linejoin="round"/>
<path d="M324.5 564.726H308.5C306.843 564.726 305.5 566.069 305.5 567.726V583.726C305.5 585.382 306.843 586.726 308.5 586.726H324.5C326.157 586.726 327.5 585.382 327.5 583.726V567.726C327.5 566.069 326.157 564.726 324.5 564.726Z" stroke="#1E223B" stroke-width="2" stroke-linecap="round" stroke-linejoin="round"/>
<path d="M292.5 564.726H244.5C242.843 564.726 241.5 566.069 241.5 567.726V583.726C241.5 585.382 242.843 586.726 244.5 586.726H292.5C294.157 586.726 295.5 585.382 295.5 583.726V567.726C295.5 566.069 294.157 564.726 292.5 564.726Z" stroke="#1E223B" stroke-width="2" stroke-linecap="round" stroke-linejoin="round"/>
<path d="M516.5 596.237H500.5C498.843 596.237 497.5 597.58 497.5 599.237V615.237C497.5 616.894 498.843 618.237 500.5 618.237H516.5C518.157 618.237 519.5 616.894 519.5 615.237V599.237C519.5 597.58 518.157 596.237 516.5 596.237Z" stroke="#1E223B" stroke-width="2" stroke-linecap="round" stroke-linejoin="round"/>
<path d="M484.5 596.237H468.5C466.843 596.237 465.5 597.58 465.5 599.237V615.237C465.5 616.894 466.843 618.237 468.5 618.237H484.5C486.157 618.237 487.5 616.894 487.5 615.237V599.237C487.5 597.58 486.157 596.237 484.5 596.237Z" stroke="#1E223B" stroke-width="2" stroke-linecap="round" stroke-linejoin="round"/>
<path d="M452.5 596.237H436.5C434.843 596.237 433.5 597.58 433.5 599.237V615.237C433.5 616.894 434.843 618.237 436.5 618.237H452.5C454.157 618.237 455.5 616.894 455.5 615.237V599.237C455.5 597.58 454.157 596.237 452.5 596.237Z" stroke="#1E223B" stroke-width="2" stroke-linecap="round" stroke-linejoin="round"/>
<path d="M420.5 596.237H340.5C338.843 596.237 337.5 597.58 337.5 599.237V615.237C337.5 616.894 338.843 618.237 340.5 618.237H420.5C422.157 618.237 423.5 616.894 423.5 615.237V599.237C423.5 597.58 422.157 596.237 420.5 596.237Z" stroke="#1E223B" stroke-width="2" stroke-linecap="round" stroke-linejoin="round"/>
<path d="M324.5 596.237H308.5C306.843 596.237 305.5 597.58 305.5 599.237V615.237C305.5 616.894 306.843 618.237 308.5 618.237H324.5C326.157 618.237 327.5 616.894 327.5 615.237V599.237C327.5 597.58 326.157 596.237 324.5 596.237Z" stroke="#1E223B" stroke-width="2" stroke-linecap="round" stroke-linejoin="round"/>
<path d="M292.5 596.237H276.5C274.843 596.237 273.5 597.58 273.5 599.237V615.237C273.5 616.894 274.843 618.237 276.5 618.237H292.5C294.157 618.237 295.5 616.894 295.5 615.237V599.237C295.5 597.58 294.157 596.237 292.5 596.237Z" stroke="#1E223B" stroke-width="2" stroke-linecap="round" stroke-linejoin="round"/>
<path d="M260.5 596.237H244.5C242.843 596.237 241.5 597.58 241.5 599.237V615.237C241.5 616.894 242.843 618.237 244.5 618.237H260.5C262.157 618.237 263.5 616.894 263.5 615.237V599.237C263.5 597.58 262.157 596.237 260.5 596.237Z" stroke="#1E223B" stroke-width="2" stroke-linecap="round" stroke-linejoin="round"/>
<path d="M395 75H449" stroke="#1E223B" stroke-width="3" stroke-linecap="round" stroke-linejoin="round"/>
<path d="M395 88.5H437" stroke="#1E223B" stroke-width="3" stroke-linecap="round" stroke-linejoin="round"/>
<path d="M395 102H419" stroke="#1E223B" stroke-width="3" stroke-linecap="round" stroke-linejoin="round"/>
<path d="M467.213 18.5H494.213" stroke="#1E223B" stroke-width="3" stroke-linecap="round" stroke-linejoin="round"/>
<path d="M467.213 25.5H484.213" stroke="#1E223B" stroke-width="3" stroke-linecap="round" stroke-linejoin="round"/>
<path d="M466.584 89.6289H469.584" stroke="#1E223B" stroke-width="2" stroke-linecap="round" stroke-linejoin="round"/>
<path d="M477.522 89.6289H499.736C510.282 89.6289 520.396 93.8183 527.853 101.276C535.311 108.733 539.5 118.847 539.5 129.393V129.393C539.5 134.615 538.471 139.786 536.473 144.61C534.475 149.434 531.546 153.818 527.853 157.51C524.161 161.203 519.777 164.132 514.953 166.13C510.129 168.128 504.958 169.157 499.736 169.157H434.172C428.306 169.157 422.497 170.312 417.077 172.557C411.657 174.802 406.732 178.092 402.584 182.24C398.436 186.388 395.145 191.313 392.9 196.733C390.655 202.153 389.5 207.962 389.5 213.828V218.768" stroke="#1E223B" stroke-width="2" stroke-linecap="round" stroke-linejoin="round" stroke-dasharray="5.95 7.94"/>
<path d="M389.5 222.737V225.737" stroke="#1E223B" stroke-width="2" stroke-linecap="round" stroke-linejoin="round"/>
<path d="M94.357 337.84H219.899" stroke="#1E223B" stroke-width="2" stroke-linecap="round" stroke-linejoin="round" stroke-dasharray="6 8"/>
<path d="M91.137 564.726H117.387C129.352 564.726 140.826 559.973 149.287 551.513C157.747 543.053 162.5 531.578 162.5 519.613V500.619C162.5 488.716 167.229 477.3 175.645 468.883C184.062 460.466 195.478 455.738 207.381 455.737H221.5" stroke="#1E223B" stroke-width="2" stroke-linecap="round" stroke-linejoin="round"/>
<path d="M224.292 92.8584H237.848C247.304 92.8587 256.372 96.6151 263.058 103.301C269.744 109.987 273.5 119.056 273.5 128.511V128.511C273.5 133.193 274.422 137.829 276.214 142.155C278.006 146.481 280.632 150.411 283.943 153.722C287.253 157.032 291.184 159.658 295.509 161.45C299.835 163.241 304.471 164.164 309.153 164.163H328.848C338.304 164.164 347.372 167.92 354.058 174.606C360.744 181.292 364.5 190.361 364.5 199.816V225.737" stroke="#1E223B" stroke-width="2" stroke-linecap="round" stroke-linejoin="round" stroke-dasharray="6 8"/>
<path d="M539.5 330.732H592.032C596.598 330.732 601.119 329.834 605.337 328.087C609.555 326.34 613.388 323.779 616.616 320.551C619.845 317.323 622.406 313.49 624.153 309.272C625.901 305.054 626.8 300.533 626.8 295.968V203.922" stroke="#1E223B" stroke-width="2" stroke-linecap="round" stroke-linejoin="round"/>
<path d="M757.156 635.247C774.006 635.247 787.666 621.587 787.666 604.737C787.666 587.886 774.006 574.227 757.156 574.227C740.306 574.227 726.646 587.886 726.646 604.737C726.646 621.587 740.306 635.247 757.156 635.247Z" stroke="#1E223B" stroke-width="2" stroke-linecap="round" stroke-linejoin="round"/>
<path d="M539.5 391.419H727.75" stroke="#1E223B" stroke-width="2" stroke-linecap="round" stroke-linejoin="round" stroke-dasharray="6 8"/>
<path d="M729.373 657.5C748.917 657.5 764.76 641.656 764.76 622.113C764.76 602.569 748.917 586.726 729.373 586.726C709.829 586.726 693.986 602.569 693.986 622.113C693.986 641.656 709.829 657.5 729.373 657.5Z" fill="white"/>
<path d="M729.373 657.5C748.917 657.5 764.76 641.656 764.76 622.113C764.76 602.569 748.917 586.726 729.373 586.726C709.829 586.726 693.986 602.569 693.986 622.113C693.986 641.656 709.829 657.5 729.373 657.5Z" stroke="#1E223B" stroke-width="2" stroke-linecap="round" stroke-linejoin="round"/>
<path d="M693.986 622.113H539.5" stroke="#1E223B" stroke-width="2" stroke-linecap="round" stroke-linejoin="round" stroke-dasharray="6 8"/>
<path opacity="0.39" d="M547 20.5C551.142 20.5 554.5 17.1421 554.5 13C554.5 8.85786 551.142 5.5 547 5.5C542.858 5.5 539.5 8.85786 539.5 13C539.5 17.1421 542.858 20.5 547 20.5Z" fill="white"/>
<path d="M547 20.5C551.142 20.5 554.5 17.1421 554.5 13C554.5 8.85786 551.142 5.5 547 5.5C542.858 5.5 539.5 8.85786 539.5 13C539.5 17.1421 542.858 20.5 547 20.5Z" stroke="#1E223B" stroke-width="2" stroke-linecap="round" stroke-linejoin="round"/>
<path d="M714.256 654.114L729.373 622.113L764.355 627.482" stroke="#1E223B" stroke-width="2" stroke-linecap="round" stroke-linejoin="round"/>
<path d="M718.069 553.121H648.075C643.081 553.121 639.033 557.169 639.033 562.163V589.288C639.033 594.282 643.081 598.33 648.075 598.33H718.069C723.063 598.33 727.111 594.282 727.111 589.288V562.163C727.111 557.169 723.063 553.121 718.069 553.121Z" fill="#F73E59"/>
<path d="M718.069 553.121H648.075C643.081 553.121 639.033 557.169 639.033 562.163V589.288C639.033 594.282 643.081 598.33 648.075 598.33H718.069C723.063 598.33 727.111 594.282 727.111 589.288V562.163C727.111 557.169 723.063 553.121 718.069 553.121Z" stroke="#1E223B" stroke-width="2" stroke-linecap="round" stroke-linejoin="round"/>
<path d="M650.455 583.631L652.59 580.689C653.457 581.636 654.512 582.392 655.687 582.909C656.862 583.427 658.131 583.695 659.415 583.696C662.515 583.696 663.715 582.176 663.715 580.721C663.715 576.193 651.167 579.007 651.167 571.083C651.167 567.493 654.267 564.743 659.026 564.743C660.503 564.692 661.975 564.934 663.357 565.456C664.74 565.978 666.005 566.769 667.08 567.783L664.945 570.597C664.114 569.79 663.132 569.154 662.056 568.727C660.979 568.3 659.828 568.089 658.67 568.108C656.47 568.108 655.048 569.208 655.048 570.792C655.048 574.834 667.598 572.344 667.598 580.365C667.598 583.955 665.042 587.059 659.253 587.059C657.63 587.124 656.01 586.853 654.496 586.263C652.982 585.673 651.606 584.777 650.455 583.631Z" fill="white"/>
<path d="M672.546 575.9C672.546 569.465 677.107 564.742 683.576 564.742C690.011 564.742 694.604 569.465 694.604 575.9C694.661 578.759 693.632 581.534 691.725 583.664L693.504 585.664L690.885 587.864L689.009 585.764C687.331 586.634 685.466 587.078 683.576 587.057C677.107 587.059 672.546 582.338 672.546 575.9ZM686.615 583.049L683.931 580.008L686.583 577.808L689.267 580.847C690.252 579.388 690.761 577.659 690.723 575.898C690.723 571.436 687.909 568.105 683.576 568.105C679.209 568.105 676.427 571.436 676.427 575.898C676.427 580.33 679.209 583.698 683.576 583.698C684.624 583.708 685.662 583.487 686.615 583.05V583.049Z" fill="white"/>
<path d="M700.4 586.672V565.1H704.184V583.342H713.692V586.673L700.4 586.672Z" fill="white"/>
<path d="M140.383 112.869H33.708C27.7488 112.869 22.918 117.7 22.918 123.659V154.28C22.918 160.239 27.7488 165.07 33.708 165.07H140.383C146.342 165.07 151.173 160.239 151.173 154.28V123.659C151.173 117.7 146.342 112.869 140.383 112.869Z" fill="#E44D26" stroke="#1E223B" stroke-width="2" stroke-miterlimit="10"/>
<path d="M140.383 112.869H33.708C27.7488 112.869 22.918 117.7 22.918 123.659V154.28C22.918 160.239 27.7488 165.07 33.708 165.07H140.383C146.342 165.07 151.173 160.239 151.173 154.28V123.659C151.173 117.7 146.342 112.869 140.383 112.869Z" stroke="#1E223B" stroke-width="2" stroke-linecap="round" stroke-linejoin="round"/>
<path d="M54.5 150.8V140.442H42.194V150.8H38.044V127.141H42.194V136.788H54.5V127.141H58.65V150.8H54.5Z" fill="white"/>
<path d="M71.989 150.8V130.8H64.824V127.147H83.3V130.8H76.135V150.8H71.989Z" fill="white"/>
<path d="M109.906 150.8V132.532L102.67 150.8H100.9L93.63 132.534V150.8H89.48V127.141H95.332L101.788 143.386L108.207 127.141H114.059V150.8H109.906Z" fill="white"/>
<path d="M121.47 150.8V127.141H125.619V147.141H136.047V150.8H121.47Z" fill="white"/>
</svg>
